<svg xmlns="http://www.w3.org/2000/svg" viewBox="0 0 1082.99 982.66"><defs><style>.cls-1{fill:#ffac69;}</style></defs><title>Fichier 1</title><g id="Calque_2" data-name="Calque 2"><g id="Calque_1-2" data-name="Calque 1"><path class="cls-1" d="M513,782.66c-2.18,18.4-4.55,36.78-6.5,55.21-4.81,45.47-17.34,88-46.51,124.36a33.49,33.49,0,0,1-2.79,3.46c-10.4,9.77-21.05,20.14-36.92,16.06-15.66-4-20-18-22.94-31.55-9.4-43.65-8.15-87.75-3.81-131.84,2.18-22.15,5-44.23,7.35-66.35a89.38,89.38,0,0,0,.05-9.55c-11.63,28.36-22.08,56.88-34.85,84.33-23.23,49.92-50.76,97.4-86.16,139.92a45.74,45.74,0,0,1-4.52,4.91c-7.31,6.55-15,13.25-25.69,9.3S236,966.84,236.62,957.2c1.27-21,1.27-42.71,7.15-62.53C257,850.25,273.42,806.81,288.5,763a19.41,19.41,0,0,0,.94-11.57c-4.09,5.34-8.08,10.75-12.28,16-26.6,33.31-51.78,67.92-80.49,99.29-14.87,16.25-35.51,27.6-54.63,39.39-7.34,4.52-17.68,5.32-26.73,5.62-15.92.54-24.92-8.88-22.42-24.58a165.59,165.59,0,0,1,11.53-40.44c20-45.22,48.46-85,81.51-121.54,18.54-20.5,37.82-40.34,56.08-61.43-19.14,11-38.22,22.2-57.44,33.09C141,721.49,97.21,746,49.56,762.25c-10.06,3.43-20.83,6.14-31.36,6.46-14.7.46-22.45-10-15.79-22.78,8.61-16.56,19-32.81,31.56-46.57,33.35-36.63,72.19-67.15,113-95.14,17.41-11.94,34.82-23.87,52.14-37.54-6.83,1.29-13.62,2.93-20.5,3.8-36.74,4.65-73.45,9.73-110.31,13.21-9.88.93-20.75-1.87-30.27-5.38-13.64-5-16.87-15.65-8-27.54A145.89,145.89,0,0,1,56.52,524c37.6-29.72,80.24-50.58,124.35-68.66a8.26,8.26,0,0,0,4.95-4.67c-4.11,0-8.24.27-12.32,0-28-2.13-56.3-3-84-7.22-12.5-1.93-25.26-9-35.53-16.9C40.19,416,41.36,399.7,54.54,388.3,72.28,373,94.42,366.35,116.4,362c31.92-6.35,64.5-9.43,96.8-13.84,3.54-.49,7.12-.58,11-2.72-9.45-3.67-18.94-7.24-28.34-11-24.33-9.77-47.39-21.71-64-42.79-18.27-23.22-14.14-51,11.37-65.85,42.06-24.55,85.08-29.69,127.76-.39,6,4.12,12.14,8,20.36,10.31-4.72-10.66-10-21.1-14-32-10.12-27.43-20.48-54.83-29-82.77-3.38-11-3.23-23.49-2.82-35.24.61-17.7,12.18-26.8,29.93-24.37C305.23,65.36,330,80.54,352,99.71c23.23,20.26,44.64,42.52,59.95,69.81a12.94,12.94,0,0,0,6.89,5.77c-2.62-14.08-5.78-28.08-7.73-42.26-2.88-20.93-5.85-41.93-6.94-63-.62-12,1.2-24.51,4-36.28C414.55,7.4,433.43-4.29,460,1.42c40,8.57,62.72,35.2,75.27,72.75a337.33,337.33,0,0,1,15.94,143.77c-.43,4.05-.31,8.16-.37,12.25,0,1.43.19,2.87,2.22,4.88,7.2-20.4,14.56-40.76,21.57-61.23,12.33-36,27.16-70.83,51-100.91,19.6-24.77,42.35-45.86,74-54.64,18.36-5.1,22.56-1.83,31.17,14.9,10,19.55,7.06,38.79,3.1,58.56-8.44,42.16-28.75,79.33-49,116.52-4.91,9-9.93,18-13.67,27.9,14.88-13.07,29.59-26.34,44.68-39.16,40.27-34.24,83.23-64.18,130.65-88.22,13.09-6.63,23.83-8.29,36.94-6,13.58,2.34,20.06,8.66,18.76,22.48a94.26,94.26,0,0,1-7.8,29.85C880.33,185.83,859.25,211.63,835,235a115.39,115.39,0,0,0-15.83,18.34c16.05-6.41,31.93-13.33,48.2-19.12,30.24-10.78,61.35-14.31,93.16-8.52,16.92,3.08,31.48,10.61,43.15,23.59,7.73,8.6,11.28,18.41,9.07,29.69-4.43,22.57-7.69,46.35-25.32,62.93C962.6,365.23,934.57,384,900,390.38c-21.89,4.05-43.82,7.9-65.73,11.88-3.17.57-6.3,1.35-9.46,2,.07,1.13.13,2.25.2,3.38,27.74,0,55.49.26,83.22-.06,42.48-.5,84.73,1.56,125.57,14.13,13.23,4.07,26,10.87,37.7,18.35,14.65,9.33,14.93,26.27,2.63,38.88-16.83,17.26-39.22,21.81-61.2,26.85a725.29,725.29,0,0,1-176.72,18.05c-4.8-.1-9.59-1-14.4-1.19-4.23-.21-8.46,0-10.69,0,25.21,12.29,52.49,23.94,78.12,38.49,34.26,19.45,67.09,41.41,91.43,73.4,11.23,14.76,19.43,31.31,17.64,50.35-1.38,14.76-4.82,23.1-20.77,27.34-23,6.12-45.71,3.49-68.47,0C868.31,706,832.24,687.87,797.32,667c-3.09-1.85-6.21-3.65-10.7-4.13,8,10.34,16,20.78,24.17,31,38.82,48.47,75.11,98.64,102.56,154.61a234.18,234.18,0,0,1,13.72,34c4.35,14.13,4.15,28.31-8.34,38.93-13.38,11.36-29.45,12.12-43.88,4.6-10.71-5.58-20.11-15-27.93-24.51-16.1-19.57-30.76-40.34-44.09-58.07,7.27,20.36,16.26,42.92,23.18,66.08,3.21,10.75,3.78,22.76,3.17,34.07-1.39,25.53-19,39.22-44.47,36.66-31.9-3.22-54.73-21.49-74.24-44.79-26.51-31.64-42.11-69.76-61.22-105.77-6.17-11.64-11.79-23.58-18.61-35.13"/></g></g></svg>