<svg width="906" height="595" fill="none" xmlns="http://www.w3.org/2000/svg"><g clip-path="url(#clip0)" fill="#3C35D3"><path d="M777.8 371.4c-8.3-.2-16.7-.9-24.7-2.8-9.8-2.3-13-10.6-8.1-19.4 2.6-4.6 6-8.8 9.7-12.6 11.6-11.7 24-22.7 35.3-34.6 19.1-20.2 32.2-43.7 36-71.6 6.2-45.7-8.7-84.3-40-117.2-25.7-27-57.1-45.5-90.8-60.6C643.3 29.4 588.6 16 532.5 7.8c-48.8-7.1-97.8-10.1-147-6-27.3 2.3-54.2 6.9-79.8 17.1-43.8 17.4-72.2 48.2-82.6 94.8-6.5 29-6.5 58.2-1.8 87.4 7.5 46.9 29.6 85.4 65.9 115.9 25.4 21.3 54.5 36.3 85 48.9 15.7 6.5 31.4 12.9 47 19.7 8 3.5 15.4 8.1 20.8 15.2 8.7 11.4 4.2 24.8-9.7 27.7-8.2 1.7-17 2.8-25.3 1.7-26.4-3.4-52.8-7.2-78.9-12.1-40.8-7.6-81.6-14.7-123.3-14.6-38.1.1-75.5 4.3-111.2 18.4-32.7 13-59.9 32.7-76.6 64.6-13.6 25.7-18.1 53.2-12.9 81.9 2.5 14.1 11.4 23.2 25.6 25.1 9.8 1.3 20.2 2.1 29.8.2 18.9-3.7 37.7-8.5 55.9-14.6 50-16.5 100.5-31.1 152.3-41 40.6-7.8 81.7-9.7 122.8-10.3 37.6-.6 75 .8 112.1 7 28.2 4.7 56.4 10.2 84.5 15.4 40.1 7.4 80.5 11.7 121.2 11.2 29.3-.3 57.4-5.9 82.1-22.8 23.5-16.2 36.2-38.1 33.7-67.5-1.3-14.7-9.2-25-23.6-28-10.2-2.1-20.9-3.1-31.2-2.5-14.4.9-28.7 4.1-43.1 5.6-10 1.1-20.2 1.8-30.3 1.3-8.2-.3-13.8-5.6-15.5-13.9-1.5-7.5-1.1-15 4.1-20.9 4.5-5.2 9.9-10 15.7-13.5 12.7-7.7 27.1-11 41.5-13.6l38.1-14.2zm128 2.3v-.5z"/><path d="M739.8 385.6c-14.4 2.7-28.8 6-41.5 13.6-5.8 3.5-11.2 8.4-15.7 13.5-5.1 5.8-5.6 13.4-4.1 20.9 1.7 8.3 7.3 13.6 15.5 13.9 10.1.4 20.2-.3 30.3-1.3 14.4-1.6 28.6-4.7 43.1-5.6 10.3-.6 21 .4 31.2 2.5 14.4 3 22.3 13.2 23.6 28 2.5 29.3-10.2 51.3-33.7 67.5-24.7 16.9-52.8 22.5-82.1 22.8-40.8.5-81.2-3.8-121.2-11.2-28.2-5.2-56.3-10.7-84.5-15.4-37.1-6.1-74.5-7.6-112.1-7-41.2.6-82.3 2.5-122.8 10.3-51.8 9.9-102.2 24.6-152.3 41-18.3 6-37.1 10.8-55.9 14.6-9.6 1.9-20 1.1-29.8-.2-14.2-1.9-23.1-10.9-25.6-25.1-5.1-28.7-.7-56.2 12.7-81.9 16.6-31.9 43.9-51.7 76.6-64.6 35.7-14.1 73.1-18.3 111.2-18.4 41.7-.1 82.5 7 123.3 14.6 26.2 4.9 52.5 8.7 78.9 12.1 8.2 1.1 17 0 25.3-1.7 14-2.8 18.4-16.3 9.7-27.7-5.4-7.1-12.8-11.7-20.8-15.2-15.5-6.8-31.3-13.3-47-19.7-30.5-12.6-59.6-27.5-85-48.9-36.3-30.5-58.4-69.1-65.9-115.9-4.7-29.2-4.6-58.4 1.8-87.4 10.4-46.5 38.8-77.4 82.6-94.8C331.2 8.7 358.1 4 385.4 1.8c49.2-4.1 98.2-1.1 147 6 56.1 8.2 110.8 21.6 162.7 44.8 33.7 15 65.1 33.6 90.8 60.6 31.3 32.8 46.2 71.5 40 117.2-3.8 27.9-16.9 51.4-36 71.6-11.3 12-23.7 23-35.3 34.6-3.7 3.7-7.1 8-9.7 12.6-5 8.8-1.7 17.1 8.1 19.4 8 1.9 16.4 2.6 24.7 2.8"/></g><defs><clipPath id="clip0"><path fill="#fff" d="M0 0h905.8v594.8H0z"/></clipPath></defs></svg>