<svg width="906" height="595" viewBox="0 0 906 595" fill="none" xmlns="http://www.w3.org/2000/svg">
<g clip-path="url(#clip0)">
<path d="M777.8 371.4C769.5 371.2 761.1 370.5 753.1 368.6C743.3 366.3 740.1 358 745 349.2C747.6 344.6 751 340.4 754.7 336.6C766.3 324.9 778.7 313.9 790 302C809.1 281.8 822.2 258.3 826 230.4C832.2 184.7 817.3 146.1 786 113.2C760.3 86.2 728.9 67.7 695.2 52.6C643.3 29.4 588.6 16 532.5 7.80005C483.7 0.700046 434.7 -2.29995 385.5 1.80005C358.2 4.10005 331.3 8.70005 305.7 18.9C261.9 36.3 233.5 67.1 223.1 113.7C216.6 142.7 216.6 171.9 221.3 201.1C228.8 248 250.9 286.5 287.2 317C312.6 338.3 341.7 353.3 372.2 365.9C387.9 372.4 403.6 378.8 419.2 385.6C427.2 389.1 434.6 393.7 440 400.8C448.7 412.2 444.2 425.6 430.3 428.5C422.1 430.2 413.3 431.3 405 430.2C378.6 426.8 352.2 423 326.1 418.1C285.3 410.5 244.5 403.4 202.8 403.5C164.7 403.6 127.3 407.8 91.6 421.9C58.9 434.9 31.7 454.6 15 486.5C1.39998 512.2 -3.10002 539.7 2.09998 568.4C4.59998 582.5 13.5 591.6 27.7 593.5C37.5 594.8 47.9 595.6 57.5 593.7C76.4 590 95.2 585.2 113.4 579.1C163.4 562.6 213.9 548 265.7 538.1C306.3 530.3 347.4 528.4 388.5 527.8C426.1 527.2 463.5 528.6 500.6 534.8C528.8 539.5 557 545 585.1 550.2C625.2 557.6 665.6 561.9 706.3 561.4C735.6 561.1 763.7 555.5 788.4 538.6C811.9 522.4 824.6 500.5 822.1 471.1C820.8 456.4 812.9 446.1 798.5 443.1C788.3 441 777.6 440 767.3 440.6C752.9 441.5 738.6 444.7 724.2 446.2C714.2 447.3 704 448 693.9 447.5C685.7 447.2 680.1 441.9 678.4 433.6C676.9 426.1 677.3 418.6 682.5 412.7C687 407.5 692.4 402.7 698.2 399.2C710.9 391.5 725.3 388.2 739.7 385.6L777.8 371.4ZM905.8 373.7C905.8 373.5 905.8 373.3 905.8 373.2Z" fill="#3C35D3"/>
<path d="M739.8 385.6C725.4 388.3 711 391.6 698.3 399.2C692.5 402.7 687.1 407.6 682.6 412.7C677.5 418.5 677 426.1 678.5 433.6C680.2 441.9 685.8 447.2 694 447.5C704.1 447.9 714.2 447.2 724.3 446.2C738.7 444.6 752.9 441.5 767.4 440.6C777.7 440 788.4 441 798.6 443.1C813 446.1 820.9 456.3 822.2 471.1C824.7 500.4 812 522.4 788.5 538.6C763.8 555.5 735.7 561.1 706.4 561.4C665.6 561.9 625.2 557.6 585.2 550.2C557 545 528.9 539.5 500.7 534.8C463.6 528.7 426.2 527.2 388.6 527.8C347.4 528.4 306.3 530.3 265.8 538.1C214 548 163.6 562.7 113.5 579.1C95.2 585.1 76.4 589.9 57.6 593.7C48 595.6 37.6 594.8 27.8 593.5C13.6 591.6 4.69997 582.6 2.19997 568.4C-2.90003 539.7 1.49997 512.2 14.9 486.5C31.5 454.6 58.8 434.8 91.5 421.9C127.2 407.8 164.6 403.6 202.7 403.5C244.4 403.4 285.2 410.5 326 418.1C352.2 423 378.5 426.8 404.9 430.2C413.1 431.3 421.9 430.2 430.2 428.5C444.2 425.7 448.6 412.2 439.9 400.8C434.5 393.7 427.1 389.1 419.1 385.6C403.6 378.8 387.8 372.3 372.1 365.9C341.6 353.3 312.5 338.4 287.1 317C250.8 286.5 228.7 247.9 221.2 201.1C216.5 171.9 216.6 142.7 223 113.7C233.4 67.2 261.8 36.3 305.6 18.9C331.2 8.70005 358.1 4.00005 385.4 1.80005C434.6 -2.29995 483.6 0.700046 532.4 7.80005C588.5 16 643.2 29.4 695.1 52.6C728.8 67.6 760.2 86.2 785.9 113.2C817.2 146 832.1 184.7 825.9 230.4C822.1 258.3 809 281.8 789.9 302C778.6 314 766.2 325 754.6 336.6C750.9 340.3 747.5 344.6 744.9 349.2C739.9 358 743.2 366.3 753 368.6C761 370.5 769.4 371.2 777.7 371.4" fill="#3C35D3"/>
</g>
<defs>
<clipPath id="clip0">
<rect width="905.8" height="594.8" fill="white"/>
</clipPath>
</defs>
</svg>
