<svg width="268" height="453" fill="none" xmlns="http://www.w3.org/2000/svg"><path d="M0 237.355c.5-36.9 5.6-72.9 19.5-107.2 8.6-21.2 19.9-41 35.4-58.2 38-42.1 86.1-64 141.4-71.5 8.9-1.2 18.3.2 27.3 1.6 13.9 2.2 28.7 18.5 26.2 33.6-2 12.3-9 21.3-19.6 26.9-14 7.4-28.3 14.1-42.8 20.4-27.2 11.7-52.3 26.8-72.8 48.4-19.2 20.2-33.8 43.2-37.1 71.5-1.3 11.4-.9 23.3.4 34.8 2.5 22.5 8.3 44.2 17.9 64.7 16 34.3 41.9 56.7 78.9 65.7 17.8 4.3 35.8 7.7 53.6 11.9 11.4 2.7 21.8 7.5 29.8 16.3 8.6 9.4 11.3 20.7 9 33-2.2 12.3-16.1 23.1-30 22.9-17.6-.3-35.3-1.1-52.9-2.5-13.9-1.1-28-2.4-41.6-5.4-34.5-7.5-62.7-25.6-85.7-52.6-22.7-26.7-40.3-55.9-49.5-89.8-2.1-7.9-3.8-15.9-4.7-24-1.2-13.6-1.8-27.1-2.7-40.5z" fill="#3C35D3"/></svg>