<svg width="268" height="452" viewBox="0 0 268 452" fill="none" xmlns="http://www.w3.org/2000/svg">
<g clip-path="url(#clip0)">
<path d="M0 237.4C0.5 200.5 5.6 164.5 19.5 130.2C28.1 109 39.4 89.2 54.9 72C92.9 29.9 141 8.00005 196.3 0.500048C205.2 -0.699952 214.6 0.700048 223.6 2.10005C237.5 4.30005 252.3 20.6 249.8 35.7001C247.8 48.0001 240.8 57 230.2 62.6C216.2 70 201.9 76.7 187.4 83C160.2 94.7 135.1 109.8 114.6 131.4C95.4 151.6 80.8 174.6 77.5 202.9C76.2 214.3 76.6 226.2 77.9 237.7C80.4 260.2 86.2 281.9 95.8 302.4C111.8 336.7 137.7 359.1 174.7 368.1C192.5 372.4 210.5 375.8 228.3 380C239.7 382.7 250.1 387.5 258.1 396.3C266.7 405.7 269.4 417 267.1 429.3C264.9 441.6 251 452.4 237.1 452.2C219.5 451.9 201.8 451.1 184.2 449.7C170.3 448.6 156.2 447.3 142.6 444.3C108.1 436.8 79.9 418.7 56.9 391.7C34.2 365 16.6 335.8 7.4 301.9C5.3 294 3.6 286 2.7 277.9C1.5 264.3 0.9 250.8 0 237.4Z" fill="#8276B3"/>
</g>
<defs>
<clipPath id="clip0">
<rect width="268" height="452" fill="white"/>
</clipPath>
</defs>
</svg>
